<svg width="241" height="169" viewBox="0 0 241 169" fill="none" xmlns="http://www.w3.org/2000/svg">
<path d="M181.127 110.512L170.454 114.1L158.033 121.275C155.743 122.609 153.255 123.474 150.695 123.871C146.91 124.466 142.961 124.033 139.32 122.519L132.343 119.616L127.493 117.615L131.333 104.671L132.776 105.644L134.02 106.492L141.97 111.882C144.854 113.847 148.316 114.514 151.597 113.901C153.346 113.595 155.04 112.892 156.573 111.846L166.813 104.797C168.147 103.878 169.823 103.625 171.392 104.076L181.055 106.888C182.839 107.393 182.894 109.917 181.127 110.512Z" fill="#948FFF"/>
<path d="M229.118 57.9602V61.1511C229.118 61.1511 183.957 54.0842 160.936 74.8705C153.382 81.7031 144.296 86.0118 135.48 88.734C133.353 89.4011 131.244 89.978 129.188 90.4647C113.684 94.0884 100.542 93.2411 100.542 93.2411V90.014C100.542 90.014 112.621 91.0056 127.277 87.6163C130.054 86.9673 132.92 86.1741 135.823 85.1825C143.935 82.4062 152.264 78.1155 159.403 71.5173C181.343 51.2177 229.118 57.9602 229.118 57.9602Z" fill="#92EAFF"/>
<path d="M151.453 162.703L146.279 157.764C145.198 156.754 143.936 155.943 142.565 155.384L129.766 150.282C126.611 149.038 123.672 147.361 121.004 145.288C119.634 144.261 118.336 143.107 117.128 141.863L107.014 131.551H106.996L106.437 130.974L107.898 129.658H107.916L116.425 121.888L118.462 124.989L122.013 130.433L123.528 132.741C125.457 135.697 128.071 138.131 131.1 139.88C132.416 140.637 133.822 141.268 135.3 141.755L145.161 145.018C147.523 145.793 149.38 147.614 150.209 149.957L154.067 161.009C154.626 162.595 152.661 163.857 151.453 162.703Z" fill="#948FFF"/>
<path d="M135.822 85.1824L135.48 88.7339C133.353 89.4009 131.243 89.9778 129.188 90.4646L127.277 87.6162C130.053 86.9672 132.92 86.1739 135.822 85.1824Z" fill="black"/>
<path d="M122.013 130.433L107.014 131.551H106.996L106.437 130.974L107.898 129.658L107.916 129.64L118.462 124.989L122.013 130.433Z" fill="black"/>
<path d="M134.02 106.492L132.343 119.616L127.493 117.615L132.776 105.645L134.02 106.492Z" fill="black"/>
<path d="M29.0077 135.697C28.6652 135.625 28.3227 135.499 27.9801 135.373L24.1942 133.876C23.1666 133.48 22.3914 132.596 22.121 131.515L21.3458 128.36C20.9131 126.665 21.8145 124.934 23.4371 124.321L26.4477 123.15L29.0077 135.697Z" fill="#948FFF"/>
<path d="M73.6629 115.794L73.032 116.479L61.6382 128.901C59.2405 131.515 55.8693 132.993 52.3177 132.975L40.3832 132.903C38.9049 132.903 37.4446 133.372 36.2548 134.273L35.4615 134.742C34.7765 135.156 34.0553 135.463 33.2982 135.679L30.5759 121.762C31.91 121.599 33.2441 121.906 34.3979 122.645L35.6779 123.456C36.3629 123.907 37.1922 124.105 38.0215 124.015L49.7037 122.861C53.9042 122.447 57.5639 119.778 59.2225 115.884L63.387 106.185L67.6957 96.1437L73.6629 115.794Z" fill="#948FFF"/>
<path d="M73.6626 115.794L73.0316 116.479L63.3866 106.185L64.4322 103.751C65.9826 103.427 67.4429 103.066 68.8311 102.67C69.1015 102.598 69.3539 102.526 69.6063 102.435L73.6626 115.794Z" fill="black"/>
<path d="M69.6069 102.435C69.3545 102.526 69.1021 102.598 68.8317 102.67C67.4435 103.066 65.9833 103.427 64.4329 103.752L67.6959 96.1437L69.6069 102.435Z" fill="black"/>
<path d="M83.9395 95.3503C82.1908 96.8286 80.1175 98.1627 77.6838 99.3526C75.3581 100.524 72.672 101.534 69.6072 102.435L67.6962 96.1436L64.4331 103.751C63.8382 103.878 63.2253 104.004 62.5943 104.13C35.7505 109.34 22.4098 76.2046 28.3951 59.1681C34.3804 42.1316 48.911 38.4538 56.5188 37.3722C73.8618 34.9384 90.3575 49.3788 92.8093 65.2435C93.0076 66.4334 93.1158 67.6232 93.1338 68.8311C93.3321 79.6659 91.8177 88.7881 83.9395 95.3503Z" fill="#92EAFF"/>
<path d="M83.9393 95.3502L77.6836 99.3525C75.1596 100.614 72.2211 101.714 68.8318 102.67C67.7321 97.8201 67.5157 94.3046 67.5157 94.3046L80.55 74.0591L86.2469 66.5595C87.5088 66.0547 89.7263 65.3876 92.8091 65.2434C93.0074 66.4333 93.1156 67.6231 93.1336 68.831C93.3319 79.6658 91.8175 88.788 83.9393 95.3502Z" fill="#FF6B20"/>
<path d="M63.2052 45.9716C82.4772 46.2781 94.8084 66.2171 84.0637 83.5601C73.319 100.903 49.54 102.273 36.9564 83.5601C24.3728 64.847 43.6989 45.6652 63.1872 45.9716H63.2052Z" fill="#FF6B20"/>
<path d="M43.1955 66.0005C49.6676 63.5126 57.6901 69.2997 53.778 77.899C49.8659 86.4984 40.3471 84.0286 37.6609 78.1334C34.9748 72.2382 38.5804 67.7853 43.1775 66.0185L43.1955 66.0005Z" fill="white"/>
<path d="M62.9545 64.1797C69.4265 61.6918 77.449 67.4788 73.5369 76.0782C69.6248 84.6776 60.106 82.2078 57.4199 76.3126C54.7337 70.4174 58.3393 65.9645 62.9364 64.1977L62.9545 64.1797Z" fill="white"/>
<path d="M52.0109 86.3905C52.0109 86.3905 53.3269 87.6344 55.6886 87.1837C58.0503 86.733 58.6272 84.2451 58.6272 84.2451" stroke="black" stroke-width="1.83086" stroke-miterlimit="10" stroke-linecap="round"/>
<path d="M134.255 69.8769C134.255 71.1208 133.984 72.3828 133.426 73.5726L132.29 75.9523C131.064 78.5844 129.369 80.9281 127.314 82.9112C125.079 80.1529 122.158 77.4126 118.426 74.6724H118.787C120.572 74.6724 122.158 73.4645 122.627 71.7338L122.933 70.6341C123.059 70.1473 122.645 69.6606 122.14 69.7327L112.91 70.8504L112.639 70.8865C112.639 70.8865 112.621 70.8865 112.603 70.8684L93.1509 65.424L94.1244 65.2076L103.86 63.0803L118.408 59.9074C123.132 58.8618 128.071 60.2499 131.569 63.6031C133.317 65.2797 134.255 67.5513 134.255 69.8769Z" fill="#948FFF"/>
<path d="M112.91 70.8503L112.639 70.8863L93.1509 65.4238L109.088 61.9264L112.91 70.8503Z" fill="black"/>
<path d="M127.314 82.9108C124.52 85.633 121.076 87.6702 117.236 88.7699L112.874 90.0319C110.782 90.6268 108.583 89.6172 107.663 87.6342L106.762 85.6871C105.969 83.9204 106.402 81.8472 107.862 80.5672L111.413 78.9987L110.241 77.4123L111.341 76.3666C112.603 75.2669 115.542 74.672 117.218 74.672H118.426C122.158 77.4123 125.079 80.1525 127.314 82.9108Z" fill="#948FFF"/>
<path d="M131.335 112.261C127.044 125.295 112.928 134.958 91.1325 130.054C77.6836 127.026 71.8425 114.117 69.3546 104.689C67.7862 98.8297 67.5157 94.3047 67.5157 94.3047L80.55 74.0592L85.0029 67.1364C85.0029 67.1364 85.4176 66.884 86.2469 66.5595C87.635 66.0006 90.195 65.2435 93.7646 65.2074H94.1251C98.7223 65.2435 104.996 66.4874 112.604 70.8682C112.604 70.8682 112.616 70.8742 112.64 70.8862C113.74 71.5172 114.857 72.2203 115.993 72.9775C116.84 73.5364 117.652 74.1132 118.427 74.6721H117.219C115.542 74.6721 112.604 75.267 111.342 76.3668L110.242 77.4124L111.414 78.9989L107.863 80.5673C106.402 81.8473 105.97 83.9205 106.763 85.6873L107.664 87.6343C108.584 89.6174 110.783 90.6269 112.874 90.032L117.237 88.77C121.077 87.6703 124.52 85.6332 127.315 82.9109C135.193 92.6461 134.544 102.525 131.335 112.261Z" fill="#FF6B20"/>
<path d="M34.5961 142.241L33.2981 135.679L30.5759 121.761L30.1432 119.616C33.0998 116.623 33.875 108.799 31.7477 100.236C29.1877 89.9961 23.4548 82.6226 18.9298 83.7584C14.4047 84.8941 12.8002 94.1065 15.3422 104.328C17.4875 112.946 21.9044 119.508 25.9427 120.698L26.4475 123.15L29.0074 135.697L30.5038 143.071C30.7201 144.062 31.5855 144.729 32.5409 144.729C32.7393 144.729 32.9556 144.711 33.1539 144.639C34.1815 144.333 34.7944 143.287 34.5961 142.241Z" fill="#7E1BEF"/>
<path d="M27.0036 116.149C30.1142 115.373 31.0786 108.502 29.1575 100.803C27.2364 93.1037 23.1573 87.4914 20.0467 88.2675C16.936 89.0437 15.9717 95.9144 17.8928 103.614C19.8139 111.313 23.8929 116.926 27.0036 116.149Z" fill="#92EAFF"/>
<path d="M199.732 51.2178C208.763 51.2178 216.083 43.897 216.083 34.8663C216.083 25.8357 208.763 18.5149 199.732 18.5149C190.701 18.5149 183.381 25.8357 183.381 34.8663C183.381 43.897 190.701 51.2178 199.732 51.2178Z" fill="#948FFF"/>
<path d="M75.4109 168.67C84.4415 168.67 91.7623 161.349 91.7623 152.319C91.7623 143.288 84.4415 135.967 75.4109 135.967C66.3802 135.967 59.0594 143.288 59.0594 152.319C59.0594 161.349 66.3802 168.67 75.4109 168.67Z" fill="#948FFF"/>
<path d="M216.444 117.831C229.557 117.831 240.187 107.201 240.187 94.0884C240.187 80.9755 229.557 70.3455 216.444 70.3455C203.331 70.3455 192.701 80.9755 192.701 94.0884C192.701 107.201 203.331 117.831 216.444 117.831Z" fill="#7E1BEF"/>
<path d="M129.946 53.7596C144.791 53.7596 156.826 41.7251 156.826 26.8798C156.826 12.0345 144.791 0 129.946 0C115.1 0 103.066 12.0345 103.066 26.8798C103.066 41.7251 115.1 53.7596 129.946 53.7596Z" fill="#7E1BEF"/>
<path d="M193.981 32.3784C194.468 32.4866 194.847 32.4686 195.117 32.3243C195.387 32.1981 195.568 31.9458 195.658 31.5852C195.73 31.3148 195.802 30.7739 195.91 29.9627C195.91 29.8725 195.946 29.6201 196.018 29.1875C196.072 28.7548 196.145 28.3582 196.235 28.0156C196.451 27.1864 196.866 26.5914 197.497 26.2489C198.128 25.9064 198.867 25.8523 199.732 26.0686L200.796 26.339L200.273 28.4123L199.696 28.268C199.39 28.1959 199.137 28.1959 198.957 28.3041C198.777 28.4123 198.668 28.5925 198.596 28.881C198.542 29.0973 198.452 29.6021 198.344 30.3773C198.2 31.3508 198.074 31.9818 198.001 32.2883C197.857 32.8291 197.623 33.2438 197.262 33.5322C196.902 33.8207 196.451 33.9469 195.91 33.9108V33.9469C196.415 34.1812 196.739 34.5238 196.92 34.9384C197.1 35.3531 197.118 35.8398 196.974 36.3807C196.902 36.6691 196.703 37.2821 196.361 38.2195C196.09 38.9406 195.928 39.4274 195.874 39.6437C195.802 39.9322 195.82 40.1665 195.91 40.3468C196.018 40.5271 196.217 40.6533 196.541 40.7254L197.118 40.8696L196.595 42.9429L195.532 42.6724C194.684 42.4561 194.053 42.0415 193.657 41.4465C193.26 40.8516 193.17 40.1305 193.386 39.2832C193.476 38.9406 193.603 38.562 193.747 38.1474C193.891 37.7328 193.999 37.4804 194.035 37.4082C194.324 36.6511 194.522 36.1283 194.576 35.8759C194.666 35.5333 194.612 35.2449 194.432 34.9925C194.252 34.7401 193.927 34.5418 193.458 34.3976L193.963 32.3965L193.981 32.3784Z" fill="white"/>
<path d="M204.366 37.4805C204.096 37.6248 203.916 37.8591 203.825 38.2017C203.753 38.4721 203.681 39.0129 203.573 39.8242C203.573 39.9143 203.537 40.1667 203.465 40.5994C203.393 41.0321 203.339 41.4287 203.249 41.7712C203.032 42.6185 202.618 43.2135 201.987 43.538C201.356 43.8625 200.617 43.9346 199.751 43.7182L198.688 43.4478L199.21 41.3746L199.787 41.5188C200.094 41.5909 200.346 41.5909 200.526 41.4828C200.707 41.3746 200.815 41.1763 200.887 40.8878C200.941 40.6535 201.031 40.1667 201.139 39.3915C201.284 38.418 201.41 37.787 201.482 37.4805C201.626 36.9217 201.86 36.507 202.221 36.2366C202.564 35.9482 203.032 35.822 203.573 35.858V35.822C203.068 35.5876 202.744 35.2631 202.564 34.8484C202.383 34.4338 202.383 33.947 202.509 33.4062C202.582 33.1178 202.78 32.5048 203.122 31.5673C203.393 30.8282 203.555 30.3414 203.609 30.1251C203.681 29.8366 203.663 29.6203 203.555 29.44C203.447 29.2598 203.249 29.1336 202.924 29.0614L202.347 28.9172L202.87 26.844L203.934 27.1144C204.781 27.3308 205.412 27.7454 205.809 28.3403C206.205 28.9352 206.295 29.6564 206.079 30.4857C205.989 30.8282 205.863 31.2068 205.718 31.6214C205.556 32.0361 205.466 32.2885 205.43 32.3606C205.142 33.1178 204.943 33.6406 204.889 33.893C204.799 34.2535 204.835 34.542 205.015 34.7944C205.196 35.0468 205.52 35.2451 205.989 35.3713L205.484 37.3724C204.997 37.2642 204.619 37.3003 204.33 37.4445L204.366 37.4805Z" fill="white"/>
<path d="M208.008 93.4934C208.603 93.89 209.018 94.539 209.234 95.4224L210.208 99.3525L208.152 99.8573L207.233 96.1976C207.125 95.7469 206.908 95.4224 206.62 95.2421C206.332 95.0438 205.971 95.0077 205.592 95.0979C205.214 95.188 204.907 95.4043 204.745 95.7108C204.583 96.0173 204.547 96.3959 204.655 96.8466L205.574 100.506L203.519 101.029L201.284 92.1052L203.339 91.5824L204.114 94.6832C204.24 94.3407 204.475 94.0162 204.799 93.7638C205.124 93.4934 205.502 93.3131 205.953 93.1869C206.728 92.9886 207.413 93.0967 208.008 93.4934Z" fill="white"/>
<path d="M214.967 96.3056L215.4 98.0543L214.354 98.3247C213.615 98.505 212.984 98.469 212.461 98.2166C211.956 97.9461 211.596 97.4053 211.379 96.576L210.712 93.8898L209.883 94.0881L209.45 92.3755L210.28 92.1772L209.865 90.5366L211.92 90.0138L212.335 91.6543L213.687 91.3118L214.12 93.0245L212.768 93.367L213.435 96.0712C213.489 96.2695 213.561 96.4138 213.687 96.4678C213.813 96.5399 213.975 96.5399 214.21 96.4678L214.949 96.2876L214.967 96.3056Z" fill="white"/>
<path d="M219.87 95.0799L220.303 96.8286L219.257 97.099C218.518 97.2793 217.887 97.2432 217.364 96.9909C216.86 96.7204 216.499 96.1796 216.283 95.3503L215.616 92.6641L214.786 92.8624L214.354 91.1498L215.183 90.9515L214.768 89.3109L216.824 88.7881L217.238 90.4286L218.59 90.0861L219.023 91.7988L217.671 92.1413L218.338 94.8455C218.392 95.0438 218.464 95.188 218.59 95.2421C218.717 95.3142 218.879 95.3142 219.113 95.2421L219.852 95.0619L219.87 95.0799Z" fill="white"/>
<path d="M222.719 89.2928C223.026 89.0043 223.422 88.806 223.891 88.6978C224.45 88.5536 224.991 88.5716 225.496 88.7519C226.018 88.9142 226.469 89.2387 226.866 89.6894C227.262 90.1401 227.533 90.717 227.713 91.4201C227.893 92.1232 227.911 92.7541 227.785 93.3491C227.659 93.944 227.407 94.4308 227.028 94.8274C226.649 95.224 226.181 95.4944 225.622 95.6386C225.153 95.7468 224.72 95.7648 224.306 95.6567C223.909 95.5485 223.567 95.3682 223.278 95.1158L224.306 99.2623L222.251 99.7851L219.763 89.8516L221.818 89.3288L222.052 90.2843C222.178 89.9237 222.395 89.5992 222.701 89.3108L222.719 89.2928ZM224.883 90.8251C224.522 90.6088 224.144 90.5367 223.711 90.6449C223.278 90.753 222.99 90.9874 222.773 91.348C222.557 91.7085 222.521 92.1592 222.647 92.682C222.773 93.2048 223.026 93.5654 223.386 93.7998C223.747 94.0341 224.125 94.0882 224.54 93.98C224.955 93.8719 225.261 93.6375 225.478 93.2589C225.694 92.8803 225.73 92.4477 225.604 91.9249C225.478 91.402 225.225 91.0415 224.865 90.8251H224.883Z" fill="white"/>
<path d="M228.433 89.3469C228.145 89.1847 227.964 88.9503 227.892 88.6439C227.82 88.3374 227.856 88.0309 228.036 87.7425C228.217 87.472 228.487 87.2918 228.848 87.2016C229.208 87.1115 229.515 87.1475 229.803 87.3098C230.092 87.472 230.272 87.7064 230.344 88.0309C230.416 88.3554 230.38 88.6439 230.2 88.9143C230.02 89.1847 229.767 89.365 229.407 89.4551C229.046 89.5453 228.722 89.5092 228.433 89.365V89.3469ZM229.659 94.2506C229.371 94.0883 229.19 93.854 229.118 93.5475C229.046 93.241 229.082 92.9345 229.262 92.6461C229.443 92.3757 229.713 92.1954 230.074 92.1052C230.434 92.0151 230.741 92.0512 231.029 92.2134C231.318 92.3757 231.498 92.61 231.57 92.9345C231.642 93.259 231.606 93.5475 231.426 93.8179C231.245 94.0883 230.993 94.2686 230.633 94.3587C230.272 94.4489 229.947 94.4128 229.659 94.2686V94.2506Z" fill="white"/>
<path d="M115.974 31.9634C115.721 31.7831 115.577 31.5488 115.523 31.2243C115.469 30.8998 115.559 30.6294 115.757 30.377C115.956 30.1246 116.226 29.9803 116.587 29.9263C116.947 29.8722 117.236 29.9443 117.488 30.1246C117.74 30.3048 117.885 30.5572 117.939 30.8817C117.993 31.2062 117.903 31.4586 117.704 31.711C117.506 31.9454 117.236 32.0896 116.893 32.1437C116.551 32.1978 116.226 32.1437 115.974 31.9454V31.9634Z" fill="white"/>
<path d="M118.571 26.6092C118.787 26.0504 119.111 25.5997 119.58 25.2571C120.049 24.9146 120.608 24.6983 121.257 24.6081C122.086 24.5 122.807 24.6081 123.438 24.9687C124.051 25.3293 124.502 25.8881 124.79 26.6633L122.627 26.9698C122.374 26.483 121.996 26.2847 121.473 26.3569C121.094 26.4109 120.824 26.5912 120.644 26.9157C120.463 27.2402 120.409 27.6729 120.482 28.1957C120.554 28.7185 120.716 29.1332 120.986 29.3856C121.257 29.638 121.563 29.7461 121.942 29.692C122.465 29.6199 122.789 29.3135 122.897 28.7906L125.061 28.4842C124.989 29.2774 124.718 29.9444 124.213 30.4672C123.709 30.9901 123.06 31.3146 122.23 31.4227C121.581 31.5129 120.986 31.4588 120.445 31.2425C119.905 31.0441 119.454 30.7016 119.111 30.2149C118.769 29.7281 118.534 29.1512 118.444 28.4661C118.354 27.7811 118.408 27.1501 118.607 26.6092H118.571Z" fill="white"/>
<path d="M127.674 30.2331C127.115 30.0348 126.647 29.6923 126.286 29.2236C125.925 28.7548 125.691 28.1779 125.583 27.4748C125.475 26.7717 125.565 26.1768 125.781 25.618C125.998 25.0591 126.358 24.6084 126.845 24.2478C127.332 23.9053 127.891 23.6709 128.54 23.5808C129.189 23.4906 129.801 23.5447 130.36 23.7611C130.919 23.9594 131.388 24.3019 131.767 24.7887C132.145 25.2754 132.38 25.8523 132.47 26.5194C132.56 27.1864 132.488 27.8174 132.253 28.3762C132.019 28.9351 131.658 29.3858 131.172 29.7464C130.685 30.0889 130.108 30.3233 129.459 30.4134C128.81 30.5035 128.215 30.4495 127.656 30.2331H127.674ZM130.18 28.0878C130.414 27.7633 130.487 27.3306 130.414 26.8078C130.342 26.285 130.144 25.8884 129.856 25.636C129.549 25.3836 129.207 25.2934 128.81 25.3475C128.413 25.4016 128.107 25.5819 127.891 25.9064C127.674 26.2309 127.602 26.6455 127.674 27.1864C127.746 27.7272 127.927 28.1058 128.233 28.3582C128.522 28.6106 128.864 28.7007 129.261 28.6467C129.657 28.5926 129.964 28.4123 130.198 28.0878H130.18Z" fill="white"/>
<path d="M143.61 22.2826C144.169 22.7153 144.512 23.3643 144.62 24.2657L145.161 28.1417L143.142 28.4302L142.637 24.8246C142.583 24.3919 142.421 24.0854 142.168 23.8871C141.916 23.6888 141.591 23.6167 141.195 23.6708C140.798 23.7248 140.51 23.8871 140.311 24.1575C140.113 24.4279 140.059 24.7705 140.113 25.2031L140.618 28.8088L138.599 29.0972L138.094 25.4916C138.04 25.0589 137.878 24.7524 137.625 24.5541C137.373 24.3558 137.048 24.2837 136.652 24.3378C136.255 24.3919 135.967 24.5541 135.768 24.8246C135.57 25.095 135.516 25.4375 135.57 25.8702L136.075 29.4758L134.038 29.7642L133.118 23.1299L135.155 22.8415L135.264 23.6708C135.426 23.3643 135.678 23.1119 135.985 22.8956C136.291 22.6792 136.652 22.553 137.084 22.4989C137.589 22.4268 138.04 22.4809 138.472 22.6432C138.887 22.8054 139.248 23.0578 139.518 23.4364C139.698 23.0398 139.969 22.6972 140.329 22.4088C140.69 22.1203 141.105 21.9581 141.573 21.886C142.403 21.7778 143.088 21.922 143.647 22.3547L143.61 22.2826Z" fill="white"/>
<path d="M67.5145 150.949L68.3077 156.195L67.0277 156.393L66.7032 154.23L64.7202 154.536L65.0447 156.7L63.7647 156.898L62.9714 151.652L64.2514 151.454L64.5579 153.509L66.541 153.202L66.2345 151.147L67.5145 150.949Z" fill="white"/>
<path d="M72.2021 150.227L72.3643 151.255L70.9762 151.471L71.6252 155.69L70.3452 155.888L69.6962 151.67L68.308 151.886L68.1458 150.858L72.2021 150.245V150.227Z" fill="white"/>
<path d="M78.7808 149.236L79.574 154.482L78.294 154.681L77.8073 151.544L77.1042 154.861L76.0766 155.023L74.418 152.049L74.9048 155.203L73.6248 155.402L72.8315 150.156L74.3459 149.921L76.365 153.329L77.2664 149.471L78.7628 149.236H78.7808Z" fill="white"/>
<path d="M81.6302 153.148L83.3068 152.896L83.451 153.887L80.4944 154.338L79.7012 149.092L80.9812 148.893L81.6302 153.148Z" fill="white"/>
<path d="M87.1291 148.894L84.8035 149.254L84.9658 150.282C85.0559 150.156 85.1821 150.047 85.3444 149.957C85.5066 149.867 85.7049 149.795 85.9032 149.759C86.2818 149.705 86.6063 149.741 86.8767 149.867C87.1472 149.993 87.3635 150.192 87.5258 150.444C87.688 150.697 87.7781 150.985 87.8322 151.291C87.9224 151.868 87.8322 152.355 87.5438 152.752C87.2734 153.148 86.8227 153.383 86.2277 153.473C85.8311 153.527 85.4706 153.509 85.1641 153.419C84.8576 153.329 84.5872 153.166 84.3889 152.95C84.1906 152.734 84.0644 152.463 83.9923 152.139L85.2362 151.94C85.2903 152.085 85.3804 152.211 85.5066 152.301C85.6328 152.391 85.7951 152.409 85.9934 152.391C86.2277 152.355 86.39 152.247 86.4801 152.085C86.5703 151.922 86.6063 151.706 86.5522 151.454C86.4982 151.201 86.426 151.039 86.2818 150.913C86.1376 150.805 85.9573 150.769 85.7229 150.805C85.5607 150.823 85.4165 150.895 85.3263 150.985C85.2362 151.075 85.1821 151.201 85.1641 151.346L83.9382 151.526L83.4514 148.281L86.9489 147.758L87.1111 148.876L87.1291 148.894Z" fill="white"/>
<path d="M63.9986 81.6489C68.1306 81.6489 71.4802 78.2993 71.4802 74.1673C71.4802 70.0353 68.1306 66.6857 63.9986 66.6857C59.8666 66.6857 56.517 70.0353 56.517 74.1673C56.517 78.2993 59.8666 81.6489 63.9986 81.6489Z" fill="black"/>
<path d="M44.2224 82.5864C48.3544 82.5864 51.704 79.2368 51.704 75.1048C51.704 70.9728 48.3544 67.6232 44.2224 67.6232C40.0904 67.6232 36.7407 70.9728 36.7407 75.1048C36.7407 79.2368 40.0904 82.5864 44.2224 82.5864Z" fill="black"/>
<path d="M181.127 110.512L170.455 114.1L158.033 121.275C155.744 122.609 153.256 123.474 150.696 123.871L151.597 113.901C153.346 113.595 155.041 112.892 156.573 111.846L166.813 104.797C168.147 103.878 169.824 103.625 171.392 104.076L181.055 106.888C182.84 107.393 182.894 109.917 181.127 110.512Z" fill="#FF6B20"/>
<path d="M151.454 162.703L146.28 157.764C145.198 156.754 143.936 155.943 142.566 155.384L129.766 150.282C126.611 149.038 123.673 147.361 121.005 145.288L131.1 139.88C132.416 140.637 133.823 141.268 135.301 141.755L145.162 145.018C147.524 145.793 149.381 147.614 150.21 149.957L154.068 161.009C154.627 162.595 152.662 163.857 151.454 162.703Z" fill="#FF6B20"/>
<path d="M80.3691 97.9102C80.3691 97.9102 81.0181 115.415 94.3589 121.274C107.7 127.152 119.67 126.845 119.67 126.845L122.753 124.682C122.753 124.682 104.148 123.33 94.467 117.831C81.3066 110.331 82.6587 96.3057 82.6587 96.3057L80.3511 97.9102H80.3691Z" fill="#92EAFF"/>
<path d="M33.4774 126.052C33.4774 126.052 30.6651 127.152 29.6735 125.421C28.682 123.69 26.1581 126.304 25.1305 125.187C24.1029 124.069 25.7074 123.582 27.7806 122.483C27.7806 122.483 32.2696 119.31 36.6143 123.889" fill="#948FFF"/>
<path d="M33.4774 126.052C33.4774 126.052 30.6651 127.152 29.6735 125.421C28.682 123.69 26.1581 126.304 25.1305 125.187C24.1029 124.069 25.7074 123.582 27.7806 122.483C27.7806 122.483 32.2696 119.31 36.6143 123.889" stroke="black" stroke-width="1.83086" stroke-miterlimit="10" stroke-linecap="round"/>
<path d="M22.5898 127.224C22.5898 127.224 28.6292 125.529 29.0259 126.935C29.4225 128.341 22.7882 129.297 22.7882 129.297C22.7882 129.297 29.8011 127.71 30.0895 129.405C30.378 131.1 23.329 131.1 23.329 131.1C23.329 131.1 30.2337 130.234 30.5222 131.785C30.8106 133.335 24.1583 132.848 24.1583 132.848" fill="#948FFF"/>
<path d="M22.5898 127.224C22.5898 127.224 28.6292 125.529 29.0259 126.935C29.4225 128.341 22.7882 129.297 22.7882 129.297C22.7882 129.297 29.8011 127.71 30.0895 129.405C30.378 131.1 23.329 131.1 23.329 131.1C23.329 131.1 30.2337 130.234 30.5222 131.785C30.8106 133.335 24.1583 132.848 24.1583 132.848" stroke="black" stroke-width="1.83086" stroke-miterlimit="10" stroke-linecap="round"/>
<path d="M127.315 82.9109C127.315 82.9109 125.187 85.525 115.56 89.2568C107.195 92.5018 106.438 84.5695 106.438 84.5695C106.438 84.5695 105.879 80.2067 110.657 79.3233C115.434 78.44 114.226 77.6467 114.226 77.6467C114.226 77.6467 110.585 79.2512 110.242 77.6467C109.899 76.0422 116.317 73.4101 119.256 74.5459" stroke="black" stroke-width="1.83086" stroke-miterlimit="10" stroke-linecap="round"/>
<path d="M93.1502 65.4238C93.1502 65.4238 94.6285 75.3392 90.1936 87.2738C85.7587 99.2084 68.8303 102.67 68.8303 102.67L67.6946 96.1436C77.3937 92.8445 81.9548 86.5888 81.9548 86.5888C88.8775 77.0339 87.8139 66.7038 87.8139 66.7038L93.1682 65.4419L93.1502 65.4238Z" stroke="black" stroke-width="1.83086" stroke-miterlimit="10" stroke-linecap="round"/>
<path d="M82.6772 86.12L88.2299 91.0416" stroke="black" stroke-width="1.83086" stroke-miterlimit="10" stroke-linecap="round"/>
<path d="M86.9304 77.3762L92.465 79.1249" stroke="black" stroke-width="1.83086" stroke-miterlimit="10" stroke-linecap="round"/>
<path d="M75.6633 92.4298L77.6825 99.3526" stroke="black" stroke-width="1.83086" stroke-miterlimit="10" stroke-linecap="round"/>
<path d="M69.3252 5.7752L62.4077 2.04272L58.6752 8.96022L65.5927 12.6927L69.3252 5.7752Z" fill="#FFD729"/>
<path d="M205.916 143.81L194.342 145.216L198.921 134.489L205.916 143.81Z" fill="#FF6B20"/>
<path d="M4.90363 145.108C7.61183 145.108 9.80725 142.912 9.80725 140.204C9.80725 137.496 7.61183 135.301 4.90363 135.301C2.19543 135.301 0 137.496 0 140.204C0 142.912 2.19543 145.108 4.90363 145.108Z" fill="#4AFFA5"/>
</svg>
