<svg width="230" height="249" viewBox="0 0 230 249" fill="none" xmlns="http://www.w3.org/2000/svg">
<path d="M14.9964 200.792L5.80957 194.982L-0.000369959 204.169L9.18649 209.978L14.9964 200.792Z" fill="#FFD729"/>
<path d="M91.9902 71.5222C95.7349 71.5222 98.7707 68.4865 98.7707 64.7418C98.7707 60.997 95.7349 57.9613 91.9902 57.9613C88.2454 57.9613 85.2097 60.997 85.2097 64.7418C85.2097 68.4865 88.2454 71.5222 91.9902 71.5222Z" fill="#4AFFA5"/>
<path d="M230 184.336L215.595 177.133L229.051 168.269L230 184.336Z" fill="#FF6B20"/>
<path d="M106.792 210.218L105.499 216.761L101.304 238.21C100.671 241.403 98.2437 243.909 95.0777 244.621L79.2742 248.157C77.5857 248.526 76.504 246.442 77.7704 245.281L83.7594 239.846C86.4241 237.419 88.007 234.015 88.1653 230.401L88.8777 214.07L89.0888 209.426L89.2734 205.284L102.94 209.136L106.792 210.218Z" fill="#FFED71"/>
<path d="M159.03 245.334L143.253 241.799C140.087 241.113 137.633 238.58 137 235.414L133.227 216.102L131.512 207.422L132.172 207.237L149.031 202.488L149.242 207.237L149.4 211.036L150.139 227.578C150.297 231.193 151.88 234.596 154.571 237.05L160.534 242.458C161.8 243.619 160.718 245.704 159.03 245.334Z" fill="#FFED71"/>
<path d="M223.433 130.04L221.797 135.369C220.662 139.089 216.916 141.332 213.117 140.593L205.123 140.092C202.432 139.564 198.764 142.545 197.92 145.157L196.39 149.801C193.62 158.243 187.763 165.288 179.979 169.588C179.848 169.667 179.716 169.72 179.584 169.799L177.974 170.643L177.183 171.066L175.442 167.636L168.054 153.019L173.489 151.014C174.465 150.645 175.415 150.249 176.312 149.748C182.618 146.529 187.288 140.778 189.161 133.865L195.625 109.857C196.047 108.326 198.21 108.3 198.685 109.804L199.503 119.143L219.66 121.993C222.799 123.312 224.435 126.795 223.433 130.04Z" fill="#FFED71"/>
<path d="M149.4 211.036L133.227 216.101L131.512 207.421L132.172 207.237H149.242L149.4 211.036Z" fill="black"/>
<path d="M60.3284 159.721L58.0595 169.957L55.9488 179.482L53.3105 178.849C53.0203 178.769 52.7037 178.69 52.4135 178.611C51.9122 178.479 51.4373 178.347 50.9624 178.163C43.1794 175.683 36.4781 170.538 32.0721 163.625L29.4602 159.51C27.9827 157.188 23.6823 155.209 21.2022 156.37L13.5775 158.85C10.0686 160.512 5.90002 159.246 3.86852 155.948L0.966371 151.173C-0.801299 148.27 -0.0625708 144.471 2.65489 142.44L19.4873 134.736L19.9622 125.449C20.0414 123.84 22.152 123.365 22.9435 124.737L35.1325 146.397C38.7734 152.888 45.1054 157.399 52.3344 158.771C53.0731 158.929 53.8118 159.035 54.5505 159.114L60.3284 159.721Z" fill="#FFED71"/>
<path d="M179.979 169.588L176.312 149.747C175.415 150.249 174.465 150.644 173.489 151.014L168.054 153.019L175.442 167.635L177.974 170.643L179.979 169.588Z" fill="black"/>
<path d="M50.9628 178.163L52.3347 158.771C53.0734 158.929 53.8122 159.035 54.5509 159.114L60.3288 159.721L58.0598 169.958L52.4138 178.611L50.9628 178.163Z" fill="black"/>
<path d="M106.791 210.217L105.498 216.76L88.8767 214.069L89.0878 209.426L89.1933 209.136H102.939L106.791 210.217Z" fill="black"/>
<path d="M120.96 90.4385L192.142 185.022C199.16 194.335 192.907 207.712 181.272 208.318L56.4267 214.861C45.1348 215.442 37.4836 203.49 42.7867 193.491L96.45 92.338C101.436 82.9193 114.549 81.8903 120.96 90.4121V90.4385Z" fill="#25FFF2"/>
<path d="M110.644 152.36C110.512 155.763 109.826 158.955 108.638 161.488C101.066 177.635 80.8569 178.321 68.7207 167.715C59.513 159.668 57.8772 147.32 63.8398 137.506C65.713 134.393 68.3513 131.543 71.7547 129.142C78.8254 124.182 94.3387 123.866 102.755 131.174C108.533 136.213 110.934 144.84 110.644 152.36Z" fill="white"/>
<path d="M163.278 153.205C162.038 168.507 146.287 177.293 131.75 174.364C115.946 171.198 107.873 155.052 115.208 139.406C115.762 138.219 116.527 137.058 117.477 135.897C122.832 129.407 133.834 123.919 143.121 125.766C154.017 127.93 162.565 140.251 163.278 149.142C163.383 150.54 163.383 151.886 163.278 153.205Z" fill="white"/>
<path d="M105.26 174.812C105.26 174.812 108.083 185.708 112.094 185.576C116.104 185.444 118.927 173.968 118.927 173.968" stroke="black" stroke-width="1.83086" stroke-linecap="round" stroke-linejoin="round"/>
<path d="M163.277 153.205C159.53 159.299 152.855 163.864 144.729 165.104C130.957 167.188 118.241 158.851 116.341 146.424C115.787 142.783 116.209 139.195 117.475 135.897C122.831 129.407 133.833 123.919 143.12 125.766C154.016 127.93 162.564 140.251 163.277 149.142C163.382 150.54 163.382 151.886 163.277 153.205Z" fill="black"/>
<path d="M110.643 152.36C107.029 158.876 100.143 163.81 91.6472 165.103C77.8489 167.187 65.1322 158.85 63.2326 146.423C62.7841 143.363 62.9951 140.355 63.8394 137.506C65.7126 134.393 68.3509 131.543 71.7544 129.142C78.825 124.182 94.3383 123.866 102.755 131.174C108.532 136.213 110.933 144.84 110.643 152.36Z" fill="black"/>
<path d="M144.832 18.1758C144.832 18.1758 144.858 18.1758 144.885 18.2022L144.858 18.1758H144.832Z" fill="#25FFF2"/>
<path d="M151.588 29.4417C151.588 29.4417 149.978 25.0621 149.134 23.6374C148.527 22.6084 146.522 20.1548 145.493 18.9148C146.971 22.0544 139.478 29.6 128.529 35.9319C117.422 42.343 106.974 45.0605 105.206 42C105.206 42 106.974 46.7226 107.739 48.0418C108.53 49.3873 111.353 52.6588 111.353 52.6588C113.121 55.7193 123.569 53.0018 134.676 46.5907C145.783 40.1796 153.382 32.5021 151.614 29.4417H151.588Z" fill="#FFCB27"/>
<path d="M122.091 24.8771C110.984 31.2882 103.385 38.9657 105.153 42.0261L144.807 18.1757C141.957 16.197 132.301 18.9408 122.065 24.8507L122.091 24.8771Z" fill="#FFED71"/>
<path d="M145.441 18.7826C145.309 18.5451 145.124 18.3604 144.887 18.2021C144.913 18.2549 145.151 18.5187 145.494 18.9145C145.494 18.8617 145.494 18.809 145.441 18.7826Z" fill="#FFED71"/>
<path d="M128.504 35.9585C139.453 29.6265 146.972 22.0809 145.468 18.9413C145.125 18.5192 144.914 18.2554 144.861 18.229C144.861 18.229 144.835 18.229 144.808 18.229L105.154 42.0794C106.922 45.1398 117.37 42.4223 128.477 36.0112L128.504 35.9585Z" fill="#FFED71"/>
<path d="M144.886 18.2019C144.886 18.2019 149.898 23.2147 129.636 35.2718C109.374 47.3289 105.179 41.9995 105.179 41.9995" stroke="black" stroke-width="1.83086" stroke-linecap="round" stroke-linejoin="round"/>
<path d="M141.904 29.7841C141.904 29.7841 144.833 33.4513 145.651 35.7994" stroke="black" stroke-width="1.83086" stroke-linecap="round" stroke-linejoin="round"/>
<path d="M132.011 37.2765C132.011 37.2765 134.939 40.9437 135.757 43.2918" stroke="black" stroke-width="1.83086" stroke-linecap="round" stroke-linejoin="round"/>
<path d="M117.448 43.8197C117.448 43.8197 120.377 47.487 121.195 49.8351" stroke="black" stroke-width="1.83086" stroke-linecap="round" stroke-linejoin="round"/>
<path d="M126.947 33.4768C136.074 27.8463 142.543 21.7738 141.395 19.9137C140.248 18.0535 131.919 21.11 122.791 26.7405C113.664 32.371 107.195 38.4434 108.343 40.3036C109.49 42.1638 117.82 39.1073 126.947 33.4768Z" fill="#25FFF2"/>
<path d="M195.806 100.306C195.806 100.306 199.236 97.1397 200.212 95.7941C200.925 94.8443 202.402 92.0213 203.141 90.5966C200.819 93.1822 190.952 89.1983 180.874 81.5472C170.663 73.7906 164.094 65.2161 166.231 62.3931C166.231 62.3931 162.564 65.8493 161.64 67.0629C160.691 68.3029 158.791 72.1812 158.791 72.1812C156.654 75.0042 163.197 83.5787 173.434 91.3354C183.644 99.092 193.669 103.102 195.806 100.279V100.306Z" fill="#FFCB27"/>
<path d="M188.605 71.3633C178.395 63.6066 168.369 59.5964 166.232 62.4194L203.591 89.7523C204.329 86.3489 198.05 78.5395 188.631 71.3897L188.605 71.3633Z" fill="#FFED71"/>
<path d="M203.246 90.5174C203.404 90.3063 203.51 90.0425 203.562 89.7787C203.536 89.8315 203.378 90.148 203.14 90.6229C203.167 90.5966 203.219 90.5702 203.246 90.5174Z" fill="#FFED71"/>
<path d="M180.873 81.5739C190.951 89.225 200.819 93.2088 203.14 90.6233C203.378 90.1484 203.536 89.8318 203.563 89.779C203.563 89.779 203.563 89.7526 203.563 89.7262L166.204 62.3933C164.067 65.2163 170.61 73.7908 180.847 81.5475L180.873 81.5739Z" fill="#FFED71"/>
<path d="M203.564 89.7789C203.564 89.7789 200.872 96.3483 181.903 82.3388C162.933 68.3294 166.231 62.4196 166.231 62.4196" stroke="black" stroke-width="1.83086" stroke-linecap="round" stroke-linejoin="round"/>
<path d="M191.746 91.5468C191.746 91.5468 189.503 95.6625 187.656 97.3247" stroke="black" stroke-width="1.83086" stroke-linecap="round" stroke-linejoin="round"/>
<path d="M181.007 85.2936C181.007 85.2936 178.765 89.4093 176.918 91.0715" stroke="black" stroke-width="1.83086" stroke-linecap="round" stroke-linejoin="round"/>
<path d="M169.345 74.4242C169.345 74.4242 167.103 78.54 165.256 80.2021" stroke="black" stroke-width="1.83086" stroke-linecap="round" stroke-linejoin="round"/>
<path d="M200.666 87.2413C201.937 85.4629 195.893 78.9677 187.166 72.734C178.44 66.5003 170.336 62.8886 169.065 64.6671C167.795 66.4456 173.839 72.9407 182.565 79.1745C191.292 85.4082 199.396 89.0198 200.666 87.2413Z" fill="#25FFF2"/>
<path d="M67.5831 110.49C67.5831 110.49 71.0129 107.324 71.9891 105.979C72.7014 105.029 74.1789 102.206 74.9176 100.781C72.5959 103.367 62.7286 99.383 52.6502 91.7319C42.4399 83.9753 35.8705 75.4008 38.0076 72.5778C38.0076 72.5778 34.3403 76.034 33.4169 77.2476C32.4671 78.4876 30.5675 82.3659 30.5675 82.3659C28.4305 85.1889 34.9735 93.7634 45.2102 101.52C55.4204 109.277 65.446 113.287 67.5831 110.464V110.49Z" fill="#FFCB27"/>
<path d="M60.3817 81.5477C50.1714 73.7911 40.1458 69.7808 38.0088 72.6038L75.3673 99.9368C76.1061 96.5333 69.8269 88.7239 60.4081 81.5741L60.3817 81.5477Z" fill="#FFED71"/>
<path d="M75.0223 100.702C75.1806 100.491 75.2861 100.228 75.3389 99.9637C75.3125 100.017 75.1542 100.333 74.9167 100.808C74.9431 100.782 74.9959 100.755 75.0223 100.702Z" fill="#FFED71"/>
<path d="M52.6496 91.7325C62.728 99.3837 72.5953 103.368 74.917 100.782C75.1545 100.307 75.3128 99.9905 75.3391 99.9377C75.3391 99.9377 75.3391 99.9113 75.3391 99.8849L37.9806 72.552C35.8436 75.375 42.3866 83.9495 52.6233 91.7062L52.6496 91.7325Z" fill="#FFED71"/>
<path d="M75.3397 99.9631C75.3397 99.9631 72.6487 106.532 53.6792 92.523C34.7097 78.5136 38.0076 72.6038 38.0076 72.6038" stroke="black" stroke-width="1.83086" stroke-linecap="round" stroke-linejoin="round"/>
<path d="M63.523 101.731C63.523 101.731 61.2804 105.847 59.4336 107.509" stroke="black" stroke-width="1.83086" stroke-linecap="round" stroke-linejoin="round"/>
<path d="M52.7829 95.4783C52.7829 95.4783 50.5403 99.594 48.6935 101.256" stroke="black" stroke-width="1.83086" stroke-linecap="round" stroke-linejoin="round"/>
<path d="M41.0961 84.6085C41.0961 84.6085 38.8535 88.7243 37.0067 90.3864" stroke="black" stroke-width="1.83086" stroke-linecap="round" stroke-linejoin="round"/>
<path d="M72.4455 97.426C73.716 95.6475 67.6717 89.1524 58.9453 82.9187C50.2189 76.685 42.1148 73.0733 40.8443 74.8518C39.5739 76.6303 45.6181 83.1254 54.3446 89.3591C63.071 95.5928 71.1751 99.2045 72.4455 97.426Z" fill="#25FFF2"/>
<path d="M46.8231 58.5944C46.8231 58.5944 39.4622 61.3646 41.0452 66.6676" stroke="black" stroke-width="1.83086" stroke-linecap="round" stroke-linejoin="round"/>
<path d="M38.0094 56.9059C38.0094 56.9059 33.5242 59.9399 35.0545 63.8183" stroke="black" stroke-width="1.83086" stroke-linecap="round" stroke-linejoin="round"/>
<path d="M124.866 9.60091C124.866 9.60091 120.592 4.87832 123.441 1" stroke="black" stroke-width="1.83086" stroke-linecap="round" stroke-linejoin="round"/>
<path d="M117.45 11.6059C117.45 11.6059 113.176 10.7616 115.709 6.03906" stroke="black" stroke-width="1.83086" stroke-linecap="round" stroke-linejoin="round"/>
<path d="M203.643 98.1687C203.643 98.1687 208.339 100.86 206.651 104.052" stroke="black" stroke-width="1.83086" stroke-linecap="round" stroke-linejoin="round"/>
<path d="M207.02 93.103C207.02 93.103 212.719 94.475 212.719 101.203" stroke="black" stroke-width="1.83086" stroke-linecap="round" stroke-linejoin="round"/>
<path d="M11.8096 141.173C11.8096 141.173 13.8938 150.592 17.139 154.365" stroke="black" stroke-width="1.83086" stroke-linecap="round" stroke-linejoin="round"/>
<path d="M13.7377 147.769C13.7377 147.769 5.53255 149.299 5.00488 151.727" stroke="black" stroke-width="1.83086" stroke-linecap="round" stroke-linejoin="round"/>
<path d="M15.4256 151.726C15.4256 151.726 8.17019 153.468 7.72168 155.816" stroke="black" stroke-width="1.83086" stroke-linecap="round" stroke-linejoin="round"/>
<path d="M12.5245 143.997C12.5245 143.997 4.1083 143.997 2.65723 147.769" stroke="black" stroke-width="1.83086" stroke-linecap="round" stroke-linejoin="round"/>
<path d="M19.9367 126.003C19.9367 126.003 19.541 133.918 19.6729 135.264C17.1401 135.211 15.4252 141.147 20.8601 141.938" stroke="black" stroke-width="1.83086" stroke-linecap="round" stroke-linejoin="round"/>
<path d="M209.844 122.916C209.844 122.916 211.348 129.749 208.235 136.134" stroke="black" stroke-width="1.83086" stroke-linecap="round" stroke-linejoin="round"/>
<path d="M220.212 130.91C220.212 130.91 213.458 131.728 210.028 130.145" stroke="black" stroke-width="1.83086" stroke-linecap="round" stroke-linejoin="round"/>
<path d="M219.791 126.214C219.791 126.214 217.179 128.404 210.24 126.214" stroke="black" stroke-width="1.83086" stroke-linecap="round" stroke-linejoin="round"/>
<path d="M218.842 135.475C218.842 135.475 213.803 137.137 209.081 134.077" stroke="black" stroke-width="1.83086" stroke-linecap="round" stroke-linejoin="round"/>
<path d="M198.552 111.441L199.37 119.487C202.958 118.67 206.599 127.297 198.895 127.534" stroke="black" stroke-width="1.83086" stroke-linecap="round" stroke-linejoin="round"/>
</svg>
