<svg width="242" height="193" viewBox="0 0 242 193" fill="none" xmlns="http://www.w3.org/2000/svg">
<path d="M121.021 192.853H105.038C104.342 192.853 103.762 192.398 103.577 191.762L95.9216 164.731L94.8082 160.802V160.711L105.038 158.78C105.757 158.644 106.453 159.007 106.709 159.643C106.778 159.757 106.801 159.87 106.824 160.007L107.265 162.732L109.191 175.089C109.887 179.519 112.392 183.517 116.127 186.129L121.903 190.15C123.109 190.99 122.506 192.853 121.021 192.853Z" fill="#4ABAFF"/>
<path d="M197.246 111.646C194.486 119.006 188.362 130.818 178.294 133.907C168.226 136.996 161.476 132.839 161.476 132.839V119.573C161.476 119.573 165.071 121.186 169.479 121.436C173.492 121.686 178.201 120.777 181.449 116.461C187.642 108.284 185.323 97.2444 185.253 93.9734C185.23 92.8604 186.158 91.9518 187.294 91.9518C188.431 91.9518 189.313 92.8377 189.313 93.9507L190.635 101.333C190.635 101.333 200.007 104.263 197.246 111.646Z" fill="#4ABAFF"/>
<path d="M169.479 121.436C167.809 124.73 164.723 130.227 161.476 132.748V119.573C161.476 119.573 165.071 121.186 169.479 121.436Z" fill="black"/>
<path d="M106.709 159.643L95.9216 164.731L94.8082 160.802V160.711L105.038 158.78C105.757 158.644 106.453 159.007 106.709 159.643Z" fill="black"/>
<path d="M45.9313 102.787C45.9313 102.787 33.1959 77.5502 59.2467 68.2824C85.2975 59.0146 94.4838 84.2285 94.4838 84.2285C94.4838 84.2285 96.8499 70.5994 109.585 74.0748C122.321 77.5502 114.619 89.1577 114.619 89.1577C114.619 89.1577 134.453 68.2597 154.589 84.5011C174.724 100.742 154.589 118.438 154.589 118.438C154.589 118.438 165.375 116.121 163.543 127.433C161.71 138.745 153.707 133.225 153.707 133.225C153.707 133.225 174.446 142.516 152.222 161.642C129.999 180.768 110.768 156.713 110.768 156.713C110.768 156.713 89.1483 168.888 66.9483 150.92C66.9483 150.92 52.4266 162.233 49.4806 143.084C49.4806 143.084 31.1313 161.642 18.6742 141.062C6.21716 120.482 23.4065 104.241 31.9896 110.033C31.9896 110.033 22.9426 100.424 32.8711 94.6548C42.7997 88.8851 45.9081 102.764 45.9081 102.764L45.9313 102.787Z" fill="#FF4DAB"/>
<path d="M95.6187 139.903C95.6187 139.903 90.2832 150.625 87.3372 139.903" stroke="black" stroke-width="1.83086" stroke-miterlimit="10" stroke-linecap="round"/>
<path d="M131.854 124.912C130.88 128.432 128.607 131.408 125.568 133.702C118.052 139.449 108.216 138.859 101.442 132.18C95.1094 125.888 93.3696 114.644 100.074 107.444C100.491 106.989 100.955 106.558 101.442 106.126C105.061 103.06 109.214 101.651 113.134 101.492C116.126 101.674 119.281 102.514 122.343 104.036C123.294 104.513 124.176 105.013 125.034 105.581C125.22 105.74 125.405 105.899 125.591 106.126C131.831 113.236 133.293 119.642 131.878 124.889L131.854 124.912Z" fill="white"/>
<path d="M91.6064 116.688C91.6064 116.961 91.6064 117.234 91.5832 117.461C91.56 117.711 91.56 117.938 91.5136 118.188C91.4905 118.46 91.444 118.733 91.3977 118.983C91.3281 119.573 91.2121 120.141 91.0961 120.709C88.9387 129.84 80.8892 135.406 71.355 134.361C61.8208 133.316 52.7506 124.73 54.6528 114.144C55.1167 111.646 55.9518 109.442 57.1813 107.511C60.4058 102.264 65.9268 99.3112 70.8214 99.1295C73.8603 99.2885 77.1312 100.106 80.2396 101.674C87.1757 105.172 91.5136 111.191 91.6064 116.666V116.688Z" fill="white"/>
<path d="M131.855 124.912C127.981 130.227 118.749 131.272 110.374 127.092C101.397 122.595 96.7806 113.827 100.075 107.466C100.492 107.012 100.956 106.58 101.443 106.149C105.062 103.082 109.214 101.674 113.135 101.515C116.127 101.697 119.282 102.537 122.344 104.059C123.295 104.536 124.177 105.036 125.035 105.604C125.221 105.763 125.406 105.922 125.592 106.149C131.832 113.259 133.294 119.664 131.878 124.912H131.855Z" fill="black"/>
<path d="M91.6055 116.688C91.6055 116.961 91.6055 117.234 91.5823 117.461C91.5591 117.711 91.5591 117.938 91.5127 118.188C91.4895 118.46 91.4431 118.733 91.3967 118.983C91.2111 119.778 90.9328 120.573 90.5384 121.3C87.2444 127.66 77.2926 129.182 68.292 124.707C60.4048 120.777 55.8581 113.531 57.1804 107.534C60.4048 102.287 65.9258 99.3339 70.8205 99.1522C73.8594 99.3112 77.1302 100.129 80.2387 101.696C87.1748 105.194 91.5127 111.214 91.6055 116.688Z" fill="black"/>
<path d="M240.187 10.8127V13.4704H133.293V10.8127C133.293 6.49679 136.842 3.02136 141.227 3.02136H232.254C236.638 3.02136 240.187 6.49679 240.187 10.8127Z" fill="#4ABAFF"/>
<path d="M240.187 13.4706V63.6712C240.187 67.9644 236.638 71.4625 232.254 71.4625H141.227C136.842 71.4625 133.293 67.9644 133.293 63.6712V13.4706H240.187Z" fill="#C2EEFF"/>
<path d="M214.205 24.3967H155.747C152.711 24.3967 150.249 26.807 150.249 29.7802C150.249 32.7535 152.711 35.1637 155.747 35.1637H214.205C217.241 35.1637 219.703 32.7535 219.703 29.7802C219.703 26.807 217.241 24.3967 214.205 24.3967Z" fill="#4ABAFF"/>
<path d="M211.955 30.5296L211.027 32.3468M214.577 28.7578C214.577 29.7572 213.741 30.575 212.721 30.575C211.7 30.575 210.865 29.7572 210.865 28.7578C210.865 27.7583 211.7 26.9406 212.721 26.9406C213.741 26.9406 214.577 27.7583 214.577 28.7578Z" stroke="white" stroke-width="1.83086" stroke-linecap="round" stroke-linejoin="round"/>
<path d="M195.183 60.9907H178.295V44.454H195.183V60.9907ZM178.295 44.454L195.183 60.9907L178.295 44.454ZM178.295 60.9907L194.811 44.8174L178.295 60.9907Z" fill="#FF6B20"/>
<path d="M195.183 60.9907H178.295M195.183 60.9907V44.454H178.295M195.183 60.9907L178.295 44.454M178.295 60.9907V44.454M178.295 60.9907L194.811 44.8174" stroke="black" stroke-width="1.83086" stroke-linecap="round" stroke-linejoin="round"/>
<path d="M169.921 60.9907H153.033V44.454H169.921V60.9907ZM153.033 44.454L169.921 60.9907L153.033 44.454ZM153.033 60.9907L169.55 44.8174L153.033 60.9907Z" fill="#4AFFA5"/>
<path d="M169.921 60.9907H153.033M169.921 60.9907V44.454H153.033M169.921 60.9907L153.033 44.454M153.033 60.9907V44.454M153.033 60.9907L169.55 44.8174" stroke="black" stroke-width="1.83086" stroke-linecap="round" stroke-linejoin="round"/>
<path d="M219.309 60.9907H202.422V44.454H219.309V60.9907ZM202.422 44.454L219.309 60.9907L202.422 44.454ZM202.422 60.9907L218.938 44.8174L202.422 60.9907Z" fill="#FFD729"/>
<path d="M219.309 60.9907H202.422M219.309 60.9907V44.454H202.422M219.309 60.9907L202.422 44.454M202.422 60.9907V44.454M202.422 60.9907L218.938 44.8174" stroke="black" stroke-width="1.83086" stroke-linecap="round" stroke-linejoin="round"/>
<path d="M85.5048 159.688C86.4095 159.984 86.7806 161.074 86.2239 161.824L84.4145 164.345L77.0841 174.544C73.6972 179.224 67.2483 180.632 62.1681 177.77L52.3323 172.205C51.6596 171.841 50.8245 172.023 50.4069 172.659L46.8577 177.997C46.0458 179.224 44.074 178.565 44.2132 177.088L45.4195 164.822C45.6978 161.846 49.0151 160.188 51.6596 161.687L61.5881 167.343C64.7198 169.138 68.733 167.98 70.38 164.822L74.3468 157.235C74.6715 156.622 75.4139 156.327 76.0866 156.531L85.528 159.643L85.5048 159.688Z" fill="#4ABAFF"/>
<path d="M193.033 159.751L184.955 154.749L179.847 162.658L187.925 167.661L193.033 159.751Z" fill="#FFD729"/>
<path d="M5.96177 77.3003C9.25436 77.3003 11.9235 74.6866 11.9235 71.4624C11.9235 68.2383 9.25436 65.6246 5.96177 65.6246C2.66917 65.6246 0 68.2383 0 71.4624C0 74.6866 2.66917 77.3003 5.96177 77.3003Z" fill="#4AFFA5"/>
<path d="M107.519 54.9712L94.5521 49.3833L105.988 41.1831L107.519 54.9712Z" fill="#FF6B20"/>
<path d="M76.8064 37.1171L76.7368 37.2307C76.7368 37.2307 76.0408 37.685 74.8114 38.2302C74.7882 38.2529 74.765 38.2529 74.7418 38.2529C72.3292 39.3432 67.9449 40.8197 62.4703 40.4108C62.3311 40.4108 62.1687 40.3881 62.0295 40.3654C61.7048 40.3427 61.38 40.32 61.032 40.2746C58.5035 40.1383 52.8897 35.7997 54.5135 27.8266C56.1374 19.8309 65.4628 13.4706 74.9506 20.7168C83.8352 27.5086 77.6183 36.095 76.8064 37.1171Z" fill="#FFED71"/>
<path d="M72.8862 38.8206L71.1 33.3235C71.1 33.3235 74.5565 31.0747 73.4662 27.8719C72.3759 24.669 68.8731 24.3964 68.8731 29.4165C68.8731 29.4165 64.8831 23.5105 64.7671 30.575C64.7671 30.575 62.1226 25.7366 59.8492 29.5982C57.5759 33.4598 63.3752 34.4365 64.9527 34.8227L66.9245 40.3425" stroke="black" stroke-width="1.83086" stroke-linecap="round" stroke-linejoin="round"/>
<path d="M85.2968 24.3968L92.2329 20.4216" stroke="black" stroke-width="1.83086" stroke-linecap="round" stroke-linejoin="round"/>
<path d="M76.7382 13.4709L79.6842 6.7926" stroke="black" stroke-width="1.83086" stroke-linecap="round" stroke-linejoin="round"/>
<path d="M74.1837 45.0901L68.9875 46.4076C68.9875 46.4076 70.6577 51.6548 72.7919 50.9506C74.9261 50.2464 74.1837 45.0674 74.1837 45.0674V45.0901Z" fill="black"/>
<path d="M64.278 7.95085L62.515 1" stroke="black" stroke-width="1.83086" stroke-linecap="round" stroke-linejoin="round"/>
<path d="M52.1487 20.4212L43.8672 16.0826" stroke="black" stroke-width="1.83086" stroke-linecap="round" stroke-linejoin="round"/>
<path d="M76.8056 37.117L76.7824 37.0715C76.7824 37.0715 76.0401 37.594 74.8106 38.23C74.7874 38.2527 74.7642 38.2527 74.741 38.2527C72.3284 39.3431 67.9441 40.8195 62.4695 40.4107C62.3303 40.388 62.1679 40.3652 62.0287 40.3198V40.3652C62.4927 43.9088 64.1861 44.454 65.694 44.4313C66.2971 46.6801 67.4338 47.2707 68.4777 47.1571C70.2175 46.9754 73.21 46.4983 75.0194 45.3399C76.0865 44.6584 76.0633 42.9775 75.8545 41.7509C77.7335 40.2744 76.9216 37.4577 76.8056 37.117Z" fill="#4ABAFF"/>
<path d="M47.9957 32.0061L40.5956 32.1197" stroke="black" stroke-width="1.83086" stroke-linecap="round" stroke-linejoin="round"/>
<path d="M87.3383 160.279L84.4154 164.345C81.5853 163.073 75.5539 159.938 74.9044 156.168L87.3383 160.279Z" fill="black"/>
<path d="M184.582 112.236C184.582 112.236 185.672 113.758 187.899 110.692C188.409 109.988 190.984 111.669 192.051 111.146C192.26 111.032 192.446 110.487 192.353 110.283C191.958 109.238 188.618 107.739 188.618 107.739" stroke="black" stroke-width="1.83086" stroke-miterlimit="10" stroke-linecap="round"/>
<path d="M190.243 102.446C190.243 102.446 188.735 104.808 188.804 105.558C188.874 106.308 189.477 106.648 190.104 106.103C190.73 105.558 192.516 103.673 192.516 103.673C192.516 103.673 191.124 105.672 191.031 106.648C190.939 107.625 191.936 108.238 192.586 107.739C193.235 107.239 195.323 105.99 195.323 105.99C195.323 105.99 193.467 107.648 193.142 108.852C192.818 110.056 193.537 110.737 194.325 110.306C195.114 109.874 196.599 108.625 196.599 108.625" stroke="black" stroke-width="1.83086" stroke-linecap="round" stroke-linejoin="round"/>
<path d="M75.8542 41.751C75.8542 41.751 70.9132 44.5449 65.6937 44.4314" stroke="black" stroke-width="1.83086" stroke-linecap="round" stroke-linejoin="round"/>
<path d="M240.187 13.4706H133.293" stroke="black" stroke-width="1.83086" stroke-linecap="round" stroke-linejoin="round"/>
<path d="M114.085 154.305C114.085 154.305 104.087 163.187 87.3385 160.279C70.5898 157.372 64.7905 148.104 64.7905 148.104" stroke="black" stroke-width="1.83086" stroke-miterlimit="10" stroke-linecap="round"/>
<path d="M161.478 132.839C161.478 132.839 165.654 125.138 162.963 121.3C160.272 117.461 152.594 116.847 149.532 122.004" stroke="black" stroke-width="1.83086" stroke-miterlimit="10" stroke-linecap="round"/>
</svg>
