<svg width="12" height="12" viewBox="0 0 12 12" fill="none" xmlns="http://www.w3.org/2000/svg">
<path d="M0.335451 0.335451C0.55032 0.120669 0.841697 0 1.1455 0C1.44931 0 1.74068 0.120669 1.95555 0.335451L6.00692 4.38682L10.0583 0.335451C10.2744 0.126754 10.5638 0.0112629 10.8642 0.0138858C11.1646 0.0164915 11.452 0.136988 11.6644 0.349423C11.8768 0.56184 11.9973 0.849222 12 1.14963C12.0026 1.45004 11.8871 1.73945 11.6784 1.95555L7.62701 6.00692L11.6784 10.0583C11.8871 10.2744 12.0026 10.5638 12 10.8642C11.9973 11.1646 11.8768 11.452 11.6644 11.6644C11.452 11.8768 11.1646 11.9973 10.8642 12C10.5638 12.0026 10.2744 11.8871 10.0583 11.6784L6.00692 7.62701L1.95555 11.6784C1.73945 11.8871 1.45004 12.0026 1.14963 12C0.849222 11.9973 0.56184 11.8768 0.349423 11.6644C0.136988 11.452 0.0164915 11.1646 0.0138858 10.8642C0.0112629 10.5638 0.126754 10.2744 0.335451 10.0583L4.38682 6.00692L0.335451 1.95555C0.120669 1.74068 0 1.44931 0 1.1455C0 0.841697 0.120669 0.55032 0.335451 0.335451Z" fill="white"/>
</svg>
