<svg width="16" height="16" viewBox="0 0 16 16" fill="none" xmlns="http://www.w3.org/2000/svg">
<path d="M8 0.5C3.86 0.5 0.5 3.86 0.5 8C0.5 12.14 3.86 15.5 8 15.5C12.14 15.5 15.5 12.14 15.5 8C15.5 3.86 12.14 0.5 8 0.5ZM5.9675 11.2175L3.275 8.525C3.20556 8.45556 3.15048 8.37313 3.1129 8.28241C3.07533 8.19168 3.05598 8.09445 3.05598 7.99625C3.05598 7.89805 3.07533 7.80082 3.1129 7.71009C3.15048 7.61937 3.20556 7.53694 3.275 7.4675C3.34444 7.39806 3.42687 7.34298 3.51759 7.30541C3.60832 7.26783 3.70555 7.24848 3.80375 7.24848C3.90195 7.24848 3.99918 7.26783 4.08991 7.30541C4.18063 7.34298 4.26306 7.39806 4.3325 7.4675L6.5 9.6275L11.66 4.4675C11.8002 4.32727 11.9904 4.24848 12.1887 4.24848C12.3871 4.24848 12.5773 4.32727 12.7175 4.4675C12.8577 4.60773 12.9365 4.79793 12.9365 4.99625C12.9365 5.19457 12.8577 5.38477 12.7175 5.525L7.025 11.2175C6.95561 11.287 6.8732 11.3422 6.78247 11.3798C6.69174 11.4175 6.59448 11.4368 6.49625 11.4368C6.39802 11.4368 6.30076 11.4175 6.21003 11.3798C6.1193 11.3422 6.03689 11.287 5.9675 11.2175Z" fill="white"/>
</svg>
